

<svg enable-background="new 0 0 30 30" height="40px" id="Capa_1" version="1.1" viewBox="0 0 30 30" width="40px" xml:space="preserve" xmlns="http://www.w3.org/2000/svg">
 <defs>
  <filter height="200%" width="200%" y="-50%" x="-50%" id="svg_1_blur">
   <feGaussianBlur stdDeviation="0" in="SourceGraphic"/>
  </filter>
 </defs>
 <g>
  <title>background</title>
  <rect fill="none" id="canvas_background" height="402" width="582" y="-1" x="-1"/>
 </g>
 <g>
  <title>Layer 1</title>
  <path filter="url(#svg_1_blur)" opacity="0.8" id="svg_1" fill="#ffa400" d="m22.8,12.53923c-0.4,0.1 -0.6,0.6 -0.4,1c0.5,1.2 0.7,2.5 0.7,3.8c0,6 -4.9,10.8 -10.8,10.8s-10.8,-4.8 -10.8,-10.8s4.8,-10.8 10.8,-10.8c1.1,0 2.3,0.2 3.4,0.5c0.4,0.1 0.8,-0.1 0.9,-0.5c0.1,-0.4 -0.1,-0.8 -0.5,-0.9c-1.2,-0.4 -2.5,-0.6 -3.8,-0.6c-6.8,0 -12.3,5.5 -12.3,12.3s5.5,12.3 12.3,12.3s12.3,-5.5 12.3,-12.3c0,-1.5 -0.3,-3 -0.8,-4.4c-0.1,-0.3 -0.6,-0.5 -1,-0.4zm-10.5,2.3c0.4,0 0.8,-0.3 0.8,-0.8s-0.3,-0.8 -0.8,-0.8c-2.2,0 -4,1.8 -4,4c0,2.2 1.8,4 4,4s4,-1.8 4,-4c0,-0.4 -0.3,-0.8 -0.8,-0.8s-0.7,0.5 -0.7,0.9c0,1.4 -1.1,2.5 -2.5,2.5s-2.5,-1.1 -2.5,-2.5c0,-1.4 1.1,-2.5 2.5,-2.5zm3.7,-3.9c0.2,-0.4 0,-0.8 -0.4,-1c-1,-0.5 -2.2,-0.7 -3.3,-0.7c-4.5,0 -8.2,3.6 -8.2,8.1s3.7,8.2 8.2,8.2s8.2,-3.7 8.2,-8.2c0,-1.2 -0.2,-2.3 -0.7,-3.3c-0.2,-0.4 -0.6,-0.6 -1,-0.4c-0.4,0.2 -0.5,0.6 -0.4,1c0.4,0.9 0.6,1.8 0.6,2.7c0,3.7 -3,6.7 -6.7,6.7s-6.7,-3 -6.7,-6.7s3,-6.7 6.7,-6.7c1,0 1.9,0.2 2.7,0.6c0.4,0.2 0.8,0 1,-0.3zm13.6,-5c-0.1,-0.3 -0.3,-0.5 -0.6,-0.5l-4.1,-0.7l-0.7,-4.1c0,-0.3 -0.2,-0.5 -0.5,-0.6c-0.3,-0.1 -0.6,0 -0.8,0.2l-4.9,4.9c-0.2,0.2 -0.3,0.4 -0.2,0.7l0.8,4.2l-6.3,6.3c0,0 -0.1,0 -0.1,0c-0.6,0 -1.1,0.5 -1.1,1.1s0.5,1.1 1.1,1.1c0.6,0 1.1,-0.5 1.1,-1.1c0,0 0,0 0,0l6.4,-6.4l4.1,0.8c0,0 0.1,0 0.1,0c0.2,0 0.4,-0.1 0.5,-0.2l4.9,-4.9c0.3,-0.2 0.4,-0.5 0.3,-0.8zm-10.2,-0.1l3.6,-3.6l0.5,2.8l-3.5,3.5l-0.6,-2.7zm4.4,4.4l-2.7,-0.5l3.5,-3.5l2.7,0.5l-3.5,3.5z"/>
 </g>
</svg>